PathFileType	4	(X/Y/Z)	D:\TRACE\v60_Jaco2_6-2-23\JustArmDRS_Motion3_4-platform.trc
DataRate	CameraRate	NumFrames	NumMarkers	Units	OrigDataRate	OrigDataStartFrame	OrigNumFrames
100.00	100.00	      65	5	mm	100.00	5251	      7000
Frame#	Time	Left_Front			Right_Front			Left_Aft			Right_Aft			Post			
		X1	Y1	Z1	X2	Y2	Z2	X3	Y3	Z3	X4	Y4	Z4	X5	Y5	Z5	

5251	52.500	-784.75879	-21.22303	-657.90186	786.17529	-22.52617	-635.28046	-715.82697	31.48185	475.33011	699.01563	33.28025	580.81738	12.02341	1261.04565	-1029.26135	
5252	52.510	-784.03650	-21.52579	-657.73737	786.37671	-23.00439	-635.30634	-715.43030	31.98310	475.09888	699.46881	33.61411	580.77081	12.22573	1260.37280	-1030.23999	
5253	52.520	-783.53497	-21.96063	-657.68774	786.87280	-23.40440	-635.35449	-715.10175	32.26949	475.07321	699.75061	33.89421	580.69049	12.96548	1259.47339	-1031.15747	
5254	52.530	-783.19745	-22.30763	-657.81061	787.34369	-23.75814	-635.39014	-714.69354	32.50726	475.01764	699.94794	34.13485	580.49927	13.14363	1258.84302	-1031.86621	
5255	52.540	-782.83191	-22.66620	-657.95471	787.69452	-24.21706	-635.37213	-714.37744	32.71239	474.94260	700.49200	34.68529	580.31934	14.01261	1258.36841	-1032.92175	
5256	52.550	-782.48102	-23.03862	-658.10919	788.08752	-24.65198	-635.48438	-714.00336	32.98124	474.86710	700.98151	35.04740	580.21039	13.88154	1257.50745	-1033.42188	
5257	52.560	-782.15906	-23.45640	-658.22681	788.37695	-24.89163	-635.50482	-713.69183	33.22912	474.79807	701.18561	35.25578	580.10565	14.10863	1256.84766	-1034.82324	
5258	52.570	-781.66571	-23.94662	-658.15936	788.79248	-25.30239	-635.61841	-713.31250	33.45061	474.58582	701.69550	35.58016	580.13922	14.40025	1256.46484	-1035.71875	
5259	52.580	-781.55579	-23.99231	-658.16907	789.28699	-25.65091	-635.66003	-712.94202	33.57872	474.35806	702.07593	35.75480	580.03363	15.11771	1256.15967	-1036.38000	
5260	52.590	-781.05194	-24.47676	-658.09351	789.60052	-25.93208	-635.81897	-712.51099	33.91669	474.15082	702.25513	35.91896	579.88184	15.47626	1255.30994	-1037.22156	
5261	52.600	-780.55206	-24.95177	-658.12195	790.06335	-26.36501	-635.78558	-711.94537	34.21915	474.07346	702.61536	36.08889	579.44928	16.02960	1254.67163	-1037.71936	
5262	52.610	-780.01440	-25.23475	-658.31403	790.41357	-26.75179	-635.83447	-711.74139	34.45416	474.07294	702.95618	36.46825	579.43530	16.44105	1254.32117	-1038.51367	
5263	52.620	-779.64819	-25.55675	-658.42334	790.68433	-27.08213	-635.88464	-711.51672	34.54036	474.12115	703.36194	36.64019	579.25824	16.38143	1253.72595	-1038.74976	
5264	52.630	-779.41223	-25.77501	-658.55585	791.01324	-27.35567	-635.87836	-711.09192	34.77912	474.11920	703.73273	36.96681	579.06793	17.09607	1253.46204	-1039.32239	
5265	52.640	-779.11694	-26.13324	-658.77496	791.42560	-27.58046	-635.93304	-710.71375	35.02697	473.96832	704.38647	37.29434	579.52045	17.57709	1252.84912	-1040.10278	
5266	52.650	-778.88806	-26.41011	-658.91876	791.75525	-27.82712	-636.03851	-710.18329	35.24794	473.98605	704.71643	37.22949	579.33850	18.06638	1252.38232	-1040.54822	
5267	52.660	-778.35760	-26.85439	-658.66766	792.29675	-28.13664	-636.09692	-709.87817	35.49598	473.88324	705.23389	37.57601	578.98096	18.52687	1252.05908	-1040.87427	
5268	52.670	-778.09656	-26.88235	-658.72125	792.72974	-28.38437	-636.20758	-709.55377	35.65354	473.86938	705.53381	37.80989	579.19305	18.99796	1251.70300	-1041.40491	
5269	52.680	-777.49023	-27.27450	-658.73364	793.05884	-28.58661	-636.23865	-709.15381	35.77539	473.79391	705.76300	37.74937	578.83295	19.32334	1251.14832	-1042.08789	
5270	52.690	-776.83496	-27.47849	-658.56915	793.35730	-28.77116	-636.30231	-708.84558	35.92620	473.53717	706.09216	37.93769	578.72693	19.12518	1250.65771	-1042.30310	
5271	52.700	-776.41565	-27.67527	-658.67413	793.78418	-28.98025	-636.36688	-708.26031	36.12739	473.41998	706.61786	38.12691	578.57959	19.73398	1250.30701	-1043.18054	
5272	52.710	-776.09143	-27.94271	-658.80554	794.21027	-29.13373	-636.35858	-707.76630	36.27719	473.40839	707.77405	38.95691	579.12366	20.30308	1250.09583	-1043.66748	
5273	52.720	-776.06561	-28.01481	-658.80792	794.65137	-29.34427	-636.32068	-707.36023	36.21078	473.41577	707.46417	38.59985	578.82104	20.67331	1249.93481	-1044.09619	
5274	52.730	-775.77203	-28.21901	-658.83252	795.14343	-29.55234	-636.28851	-707.07660	36.28223	473.41458	707.66980	38.71748	578.78113	20.97679	1249.81921	-1044.42078	
5275	52.740	-775.25873	-28.39055	-658.85352	795.57269	-29.70142	-636.33734	-706.60077	36.36071	473.37381	708.02069	38.83125	578.82727	21.47341	1249.51782	-1044.77319	
5276	52.750	-774.69177	-28.59321	-658.97565	796.04108	-29.87813	-636.28168	-706.16345	36.51355	473.36731	708.71985	38.96189	578.75079	21.92190	1249.29346	-1045.19849	
5277	52.760	-774.26898	-28.81144	-658.95856	796.35248	-29.95861	-636.33844	-705.81494	36.68317	473.44601	709.14612	39.22243	578.72668	22.41928	1248.89270	-1045.59509	
5278	52.770	-773.79919	-28.89113	-658.93158	796.76959	-30.11007	-636.38220	-705.35846	36.71717	473.49142	709.54871	39.32154	578.82550	22.54093	1248.62317	-1045.53577	
5279	52.780	-773.40717	-28.97091	-658.74707	797.10583	-30.20387	-636.43610	-705.13361	36.70399	473.44675	709.82404	39.41727	578.83105	23.18744	1248.65735	-1045.61865	
5280	52.790	-772.98517	-29.02799	-658.72052	797.48047	-30.25719	-636.43372	-704.82874	36.75877	473.40039	710.42889	39.58410	578.86847	23.73394	1248.30090	-1045.72864	
5281	52.800	-772.43134	-29.14124	-658.65887	797.90802	-30.34805	-636.45398	-704.28235	36.78539	473.39926	710.87634	39.62514	578.80933	24.21127	1248.15344	-1045.86804	
5282	52.810	-772.09973	-29.21715	-658.68927	798.32574	-30.38061	-636.47424	-703.77759	36.83788	473.39291	710.80029	39.80224	579.14575	24.53869	1248.11475	-1045.96497	
5283	52.820	-771.77740	-29.32528	-658.74701	798.61444	-30.43162	-636.48376	-703.31696	36.91989	473.25696	711.52716	39.56069	578.86951	24.75278	1248.08569	-1046.07300	
5284	52.830	-771.47278	-29.65091	-658.74536	799.11475	-30.53061	-636.46185	-702.95941	36.98220	473.19620	711.89130	39.57421	578.86060	25.03208	1248.08215	-1046.13623	
5285	52.840	-770.81940	-29.36516	-658.61218	799.42010	-30.56564	-636.48706	-702.67792	36.91288	473.06149	712.16632	39.58199	578.84290	25.33253	1248.04199	-1046.16553	
5286	52.850	-770.70563	-29.37511	-658.84711	799.76929	-30.67009	-636.52240	-702.36432	36.95022	473.14658	712.60895	39.65017	578.78253	25.47648	1247.94104	-1045.99158	
5287	52.860	-770.29803	-29.19638	-658.77899	800.08783	-30.69167	-636.55835	-701.88556	36.88951	473.19968	713.00592	39.62946	578.73364	26.02821	1248.02686	-1046.08325	
5288	52.870	-769.88086	-29.25139	-658.75262	800.44904	-30.58219	-636.52814	-701.62506	36.95361	473.21597	713.23431	39.61347	578.73340	26.53212	1248.33008	-1046.08899	
5289	52.880	-769.58209	-29.22780	-658.69379	800.84320	-30.49289	-636.54449	-701.09827	36.94541	473.18619	713.64728	39.60336	578.75519	26.89980	1248.42725	-1046.09058	
5290	52.890	-769.23578	-29.17639	-658.85748	801.29529	-30.37192	-636.50739	-700.65564	36.86052	473.20386	714.04865	39.50248	578.95789	27.57356	1248.45776	-1045.99597	
5291	52.900	-768.71667	-29.08304	-658.81219	801.66833	-30.39682	-636.47083	-700.31458	36.79730	473.22247	714.29724	39.51175	578.98358	27.90645	1248.50647	-1045.90771	
5292	52.910	-768.31299	-29.11973	-658.89575	802.14185	-30.35517	-636.43408	-699.90338	36.77500	473.34473	715.03180	39.51705	578.91553	28.33815	1248.49023	-1045.87048	
5293	52.920	-768.03668	-29.11948	-658.94904	802.60297	-30.32142	-636.40955	-699.54144	36.73291	473.47638	715.35327	39.47109	578.90051	28.55614	1248.55859	-1045.78186	
5294	52.930	-767.37372	-28.91904	-658.68677	802.98480	-30.18524	-636.39978	-699.33441	36.72757	473.47751	715.66315	39.49493	578.94757	28.83379	1248.63367	-1045.72827	
5295	52.940	-767.33990	-28.91268	-658.96155	803.30951	-29.98942	-636.35309	-698.99115	36.65996	473.48511	716.00195	39.47022	578.96088	29.01693	1248.74280	-1045.53076	
5296	52.950	-767.05310	-28.74887	-659.01093	803.66266	-29.89068	-636.41815	-698.52991	36.48792	473.52902	716.53943	39.33068	579.02893	29.45642	1248.74231	-1045.33191	
5297	52.960	-766.52747	-28.58354	-658.79706	804.00989	-29.84085	-636.40497	-698.22784	36.40516	473.58441	716.89423	39.23891	579.07599	30.11246	1248.89185	-1044.81506	
5298	52.970	-766.19373	-28.46081	-658.61475	804.28717	-29.74554	-636.36908	-697.87726	36.35353	473.62033	717.16357	39.08072	579.08075	30.46200	1249.25586	-1044.44702	
5299	52.980	-765.83301	-28.25012	-658.45074	804.58911	-29.57617	-636.33112	-697.60077	36.21294	473.65710	717.53723	38.91133	579.10510	30.67816	1249.63623	-1044.17151	
5300	52.990	-765.53119	-27.98413	-658.47717	804.99615	-29.32187	-636.28479	-697.17462	36.12407	473.75275	717.92847	38.74243	579.06555	30.97238	1250.00317	-1043.92346	
5301	53.000	-765.63318	-27.98271	-658.85760	805.23352	-29.21109	-636.31848	-696.71802	35.96199	473.80255	718.30005	38.69101	579.13971	31.29152	1250.35522	-1043.43872	
5302	53.010	-764.96021	-27.51690	-658.51373	805.56451	-28.98175	-636.28961	-696.42761	35.87421	473.81497	718.46509	38.42342	579.29773	31.68021	1250.68054	-1042.92139	
5303	53.020	-764.77356	-27.37066	-658.57776	805.89240	-28.78931	-636.19653	-696.22064	35.85623	473.83075	718.60822	38.26086	579.35004	31.99360	1250.91980	-1042.47998	
5304	53.030	-764.58704	-27.18321	-658.53058	806.22021	-28.58152	-636.20679	-695.90405	35.87830	473.93762	718.85620	38.13466	579.53827	32.20127	1251.19543	-1042.05933	
5305	53.040	-764.10889	-26.83657	-658.32770	806.48071	-28.46354	-636.24536	-695.45300	35.77206	473.95502	719.44629	38.02196	579.46283	32.34364	1251.56384	-1041.57935	
5306	53.050	-763.93445	-26.65396	-658.42120	806.97852	-28.26618	-636.14368	-695.18951	35.60641	473.89249	719.91663	37.87194	579.60565	32.74170	1251.87000	-1041.03052	
5307	53.060	-763.78595	-26.85977	-658.80389	807.24048	-28.14222	-636.11084	-694.97614	35.46964	473.92862	720.19214	37.77552	579.63196	33.36905	1252.19873	-1040.43750	
5308	53.070	-763.43628	-26.59268	-658.65454	807.54492	-27.93460	-636.00336	-694.58899	35.22865	473.95078	720.44305	37.60911	579.63293	33.59508	1252.36426	-1040.09583	
5309	53.080	-762.83411	-26.47444	-658.33459	807.86835	-27.65596	-635.90503	-694.20691	34.95899	474.14636	720.66083	37.49950	579.63519	33.67894	1252.53357	-1039.93689	
5310	53.090	-762.50238	-26.14074	-658.26733	808.09381	-27.44143	-635.82587	-694.00043	34.81379	474.20920	720.85449	37.36674	579.67688	33.85645	1252.98340	-1039.62952	
5311	53.100	-762.05096	-25.89250	-658.11249	808.22925	-27.22495	-635.71259	-693.88440	34.66762	474.24216	721.15393	37.06817	579.76855	33.75893	1253.18872	-1039.15503	
5312	53.110	-761.75214	-25.76510	-657.98682	808.52698	-26.89902	-635.71155	-693.74762	34.67125	474.31085	721.51837	36.83471	579.84094	34.46115	1254.03125	-1038.86938	
5313	53.120	-761.49072	-25.50705	-657.98187	808.89764	-26.49755	-635.74762	-693.23163	34.29823	474.32373	721.78217	36.46926	579.84473	34.91504	1254.35962	-1038.38196	
5314	53.130	-761.24542	-25.26597	-657.96906	809.15973	-26.21443	-635.71552	-692.82538	34.02105	474.44736	721.88959	36.34621	580.00262	35.11403	1254.64221	-1037.85767	
5315	53.140	-761.03156	-24.89701	-657.84607	809.24738	-25.96756	-635.65369	-692.65332	33.85950	474.54739	721.98181	36.07236	580.10535	35.22783	1255.18604	-1037.17456	
